<svg xmlns="http://www.w3.org/2000/svg" xmlns:xlink="http://www.w3.org/1999/xlink" width="500" zoomAndPan="magnify" viewBox="0 0 375 374.999991" height="500" preserveAspectRatio="xMidYMid meet" version="1.0"><defs><g/><clipPath id="d4bdc3e79a"><path d="M 85 82 L 293 82 L 293 169.78125 L 85 169.78125 Z M 85 82 " clip-rule="nonzero"/></clipPath><clipPath id="d055a2be6c"><path d="M 84.195312 94 L 274 94 L 274 169.78125 L 84.195312 169.78125 Z M 84.195312 94 " clip-rule="nonzero"/></clipPath><clipPath id="516a904b7b"><path d="M 116.75 186.957031 L 121.25 186.957031 L 121.25 191.457031 L 116.75 191.457031 Z M 116.75 186.957031 " clip-rule="nonzero"/></clipPath><clipPath id="701368d505"><path d="M 116.75 189.375 C 116.75 190.710938 117.832031 191.796875 119.167969 191.796875 C 120.503906 191.796875 121.585938 190.710938 121.585938 189.375 C 121.585938 188.039062 120.503906 186.957031 119.167969 186.957031 C 117.832031 186.957031 116.75 188.039062 116.75 189.375 Z M 116.75 189.375 " clip-rule="nonzero"/></clipPath><clipPath id="e161119b90"><path d="M 239.851562 186.957031 L 244.351562 186.957031 L 244.351562 191.457031 L 239.851562 191.457031 Z M 239.851562 186.957031 " clip-rule="nonzero"/></clipPath><clipPath id="524669f1fd"><path d="M 239.851562 189.375 C 239.851562 190.710938 240.9375 191.796875 242.273438 191.796875 C 243.605469 191.796875 244.691406 190.710938 244.691406 189.375 C 244.691406 188.039062 243.605469 186.957031 242.273438 186.957031 C 240.9375 186.957031 239.851562 188.039062 239.851562 189.375 Z M 239.851562 189.375 " clip-rule="nonzero"/></clipPath><clipPath id="1e47d10fcb"><path d="M 145 210 L 150 210 L 150 216.347656 L 145 216.347656 Z M 145 210 " clip-rule="nonzero"/></clipPath><clipPath id="5a8b41a459"><path d="M 145 208 L 152.347656 208 L 152.347656 212 L 145 212 Z M 145 208 " clip-rule="nonzero"/></clipPath><clipPath id="d4761290a8"><path d="M 145 208 L 152.347656 208 L 152.347656 211 L 145 211 Z M 145 208 " clip-rule="nonzero"/></clipPath><clipPath id="7571a5174c"><path d="M 145 204.347656 L 148 204.347656 L 148 211 L 145 211 Z M 145 204.347656 " clip-rule="nonzero"/></clipPath><clipPath id="66dd2f8d19"><path d="M 144 204.347656 L 146 204.347656 L 146 211 L 144 211 Z M 144 204.347656 " clip-rule="nonzero"/></clipPath><clipPath id="5b58e48b21"><path d="M 139.597656 208 L 146 208 L 146 212 L 139.597656 212 Z M 139.597656 208 " clip-rule="nonzero"/></clipPath><clipPath id="bb7b7e45d0"><path d="M 139.597656 208 L 146 208 L 146 211 L 139.597656 211 Z M 139.597656 208 " clip-rule="nonzero"/></clipPath><clipPath id="beb28c1336"><path d="M 142 210 L 146 210 L 146 216.347656 L 142 216.347656 Z M 142 210 " clip-rule="nonzero"/></clipPath><clipPath id="5673700f76"><path d="M 145 210 L 150 210 L 150 216.347656 L 145 216.347656 Z M 145 210 " clip-rule="nonzero"/></clipPath><clipPath id="8c287ab442"><path d="M 142 210 L 146 210 L 146 216.347656 L 142 216.347656 Z M 142 210 " clip-rule="nonzero"/></clipPath><clipPath id="bb41826eb9"><path d="M 175 210 L 179 210 L 179 216.347656 L 175 216.347656 Z M 175 210 " clip-rule="nonzero"/></clipPath><clipPath id="aa93a8531b"><path d="M 175 208 L 181.511719 208 L 181.511719 212 L 175 212 Z M 175 208 " clip-rule="nonzero"/></clipPath><clipPath id="afb10bf8b0"><path d="M 175 208 L 181.511719 208 L 181.511719 211 L 175 211 Z M 175 208 " clip-rule="nonzero"/></clipPath><clipPath id="f44d745b80"><path d="M 175 204.347656 L 177 204.347656 L 177 211 L 175 211 Z M 175 204.347656 " clip-rule="nonzero"/></clipPath><clipPath id="d35241ac03"><path d="M 173 204.347656 L 176 204.347656 L 176 211 L 173 211 Z M 173 204.347656 " clip-rule="nonzero"/></clipPath><clipPath id="352c191398"><path d="M 168.761719 208 L 176 208 L 176 212 L 168.761719 212 Z M 168.761719 208 " clip-rule="nonzero"/></clipPath><clipPath id="13f75c0e6c"><path d="M 168.761719 208 L 176 208 L 176 211 L 168.761719 211 Z M 168.761719 208 " clip-rule="nonzero"/></clipPath><clipPath id="81fd98639d"><path d="M 171 210 L 176 210 L 176 216.347656 L 171 216.347656 Z M 171 210 " clip-rule="nonzero"/></clipPath><clipPath id="7117bf431a"><path d="M 175 210 L 179 210 L 179 216.347656 L 175 216.347656 Z M 175 210 " clip-rule="nonzero"/></clipPath><clipPath id="bdbd25b98a"><path d="M 171 210 L 176 210 L 176 216.347656 L 171 216.347656 Z M 171 210 " clip-rule="nonzero"/></clipPath><clipPath id="4a66c074d6"><path d="M 101 169.570312 L 310 169.570312 L 310 247 L 101 247 Z M 101 169.570312 " clip-rule="nonzero"/></clipPath><clipPath id="38468eca81"><path d="M 100.636719 169.570312 L 290 169.570312 L 290 234 L 100.636719 234 Z M 100.636719 169.570312 " clip-rule="nonzero"/></clipPath></defs><rect x="-37.5" width="450" fill="#ffffff" y="-37.499999" height="449.999989" fill-opacity="1"/><rect x="-37.5" width="450" fill="#000000" y="-37.499999" height="449.999989" fill-opacity="1"/><g clip-path="url(#d4bdc3e79a)"><path fill="#f46914" d="M 194.609375 151.285156 C 194.609375 151.285156 207.734375 150.050781 230.738281 147.582031 C 253.742188 145.109375 254.359375 150.050781 254.359375 150.050781 C 247.949219 149.664062 194.609375 151.285156 194.609375 151.285156 Z M 88.316406 142.847656 C 88.316406 142.847656 103.835938 143.019531 121.714844 143.617188 C 121.714844 143.617188 133.863281 143.605469 136.332031 147.15625 L 153.429688 146.5 C 153.429688 146.5 148.292969 140.402344 117.265625 139.554688 L 113.519531 141.445312 C 113.519531 141.445312 106.765625 141.058594 96.578125 140.941406 L 94.25 138.746094 C 94.015625 138.527344 93.6875 138.433594 93.371094 138.5 L 89.824219 139.230469 C 89.5625 139.285156 89.347656 139.480469 89.269531 139.734375 Z M 149.839844 115.699219 C 149.839844 115.699219 210.511719 71.007812 257.523438 96.710938 C 257.523438 96.710938 287.628906 111.09375 274.195312 157.460938 L 288.757812 157.460938 C 288.757812 157.460938 307.542969 104.816406 264.703125 87.449219 C 221.859375 70.082031 162.574219 102.5 149.839844 115.699219 Z M 228.34375 220.605469 C 228.34375 220.605469 191.523438 254.183594 152.386719 259.277344 C 113.25 264.375 95.882812 254.648438 85.230469 232.878906 C 85.230469 232.878906 95.1875 281.046875 166.976562 263.910156 C 166.976562 263.910156 204.957031 255.109375 244.789062 220.605469 Z M 228.34375 220.605469 " fill-opacity="1" fill-rule="nonzero"/></g><g clip-path="url(#d055a2be6c)"><path fill="#ffffff" d="M 262.925781 141.148438 C 262.925781 141.148438 257.777344 138.886719 245.53125 137.136719 C 245.53125 137.136719 243.085938 136.773438 237.144531 133.535156 C 231.199219 130.289062 217.332031 121.492188 204.363281 120.566406 C 204.363281 120.566406 191.445312 119.445312 170.371094 125.003906 C 170.371094 125.003906 180.5625 119.957031 201.558594 119.488281 C 201.558594 119.488281 175.957031 117.785156 160.417969 118.09375 C 160.417969 118.09375 146.625 118.917969 136.949219 122.210938 C 127.277344 125.503906 101.132812 134.355469 91.664062 136.3125 C 91.664062 136.3125 105.765625 137.445312 120.6875 136.3125 C 120.6875 136.3125 113.484375 135.695312 111.21875 132.609375 L 138.492188 123.34375 C 138.492188 123.34375 141.347656 122.289062 144.667969 122.519531 C 144.667969 122.519531 160.417969 122.03125 168.90625 124.808594 C 168.90625 124.808594 153.546875 132.683594 125.0625 137.390625 C 125.0625 137.390625 130.773438 139.5 158.765625 138.910156 C 184.289062 138.371094 235.960938 139.808594 245.429688 140.632812 C 245.429688 140.632812 256.75 141.664062 261.175781 144.648438 C 261.175781 144.648438 254.074219 148.765625 254.382812 157.71875 C 254.382812 157.71875 258.914062 147.324219 264.675781 147.53125 C 270.4375 147.734375 272.808594 157.71875 272.808594 157.71875 C 272.808594 157.71875 275.894531 146.398438 262.925781 141.148438 Z M 186.554688 135.539062 C 182.746094 135.539062 180.175781 134.765625 179.195312 134.253906 C 178.21875 133.738281 176.882812 132.5 175.699219 131.113281 C 174.515625 129.722656 175.441406 129.105469 175.441406 129.105469 C 186.816406 122.570312 198.855469 122.464844 198.855469 122.464844 C 204.257812 128.4375 207.167969 136.410156 207.167969 136.410156 C 207.167969 136.410156 190.367188 135.539062 186.554688 135.539062 Z M 212.03125 136.414062 C 208.738281 128.285156 202.152344 122.46875 202.152344 122.46875 C 220.117188 122.910156 239.410156 137.546875 239.410156 137.546875 Z M 87.492188 144.183594 C 87.492188 144.183594 86.515625 146.449219 84.199219 149.023438 C 84.199219 149.023438 84.199219 154.890625 85.84375 157.460938 C 85.84375 157.460938 87.378906 154.59375 87.429688 151.300781 L 96.882812 151.75 C 96.882812 151.75 92.019531 152.214844 92.792969 157 C 92.792969 157 92.5625 153.140625 98.117188 153.449219 C 103.675781 153.757812 111.011719 152.90625 113.402344 157.152344 C 113.402344 157.152344 113.957031 153.019531 103.445312 152.289062 C 103.445312 152.289062 134.011719 152.597656 140.882812 151.828125 C 140.882812 151.828125 101.976562 150.824219 87.851562 148.429688 C 87.855469 148.429688 88.035156 146.886719 87.492188 144.183594 Z M 170.605469 157.460938 C 170.605469 157.460938 173.535156 153.523438 179.25 153.832031 C 184.960938 154.140625 186.121094 156.382812 187.203125 157.460938 L 190.675781 157.460938 C 190.675781 157.460938 187.507812 150.515625 179.328125 150.4375 C 171.144531 150.359375 168.058594 155.53125 167.285156 157.460938 Z M 265.628906 116.394531 C 265.628906 116.394531 256.238281 91.117188 215.066406 95.246094 C 215.066406 95.246094 185.734375 97.871094 160.722656 113.925781 L 174.539062 113.925781 C 174.542969 113.925781 235.753906 78.878906 265.628906 116.394531 Z M 89.859375 220.605469 C 89.859375 220.605469 93.105469 249.011719 126.140625 254.105469 C 159.179688 259.199219 191.136719 241.136719 203.179688 233.574219 C 203.179688 233.574219 161.960938 258.273438 126.914062 247.625 C 126.914062 247.625 104.527344 240.523438 101.902344 220.605469 Z M 89.859375 220.605469 " fill-opacity="1" fill-rule="nonzero"/></g><g fill="#ffffff" fill-opacity="1"><g transform="translate(46.432373, 175.460276)"><g><path d="M 19.328125 -15.46875 L 21.96875 -15.46875 L 21.96875 0 L 19.328125 0 L 19.328125 -6.625 L 5.828125 -6.625 L 5.828125 0 L 3.203125 0 L 3.203125 -15.46875 L 5.828125 -15.46875 L 5.828125 -8.84375 L 19.328125 -8.84375 Z M 19.328125 -15.46875 "/></g></g></g><g fill="#ffffff" fill-opacity="1"><g transform="translate(73.864283, 175.460276)"><g><path d="M 17.0625 0 L 15.546875 -2.765625 L 4.671875 -2.765625 L 3.140625 0 L 0.125 0 L 8.609375 -15.390625 L 8.5625 -15.46875 L 11.65625 -15.46875 L 11.625 -15.390625 L 20.078125 0 Z M 6.078125 -5.34375 L 14.125 -5.34375 L 10.109375 -12.65625 Z M 6.078125 -5.34375 "/></g></g></g><g fill="#ffffff" fill-opacity="1"><g transform="translate(96.346199, 175.460276)"><g><path d="M 18.078125 -10.46875 C 18.078125 -11.132812 17.796875 -11.660156 17.234375 -12.046875 C 16.671875 -12.429688 15.90625 -12.707031 14.9375 -12.875 C 13.96875 -13.039062 12.875 -13.125 11.65625 -13.125 C 10.4375 -13.125 9.304688 -13.066406 8.265625 -12.953125 C 7.222656 -12.835938 6.382812 -12.648438 5.75 -12.390625 C 5.113281 -12.140625 4.796875 -11.804688 4.796875 -11.390625 L 4.796875 -11.15625 C 4.796875 -11.007812 4.832031 -10.847656 4.90625 -10.671875 C 4.988281 -10.503906 5.222656 -10.328125 5.609375 -10.140625 C 5.992188 -9.960938 6.628906 -9.789062 7.515625 -9.625 C 8.398438 -9.46875 9.640625 -9.3125 11.234375 -9.15625 C 13.191406 -8.976562 14.863281 -8.757812 16.25 -8.5 C 17.632812 -8.25 18.695312 -7.832031 19.4375 -7.25 C 20.175781 -6.664062 20.546875 -5.785156 20.546875 -4.609375 L 20.546875 -4.359375 C 20.546875 -2.648438 19.78125 -1.453125 18.25 -0.765625 C 16.71875 -0.0859375 14.335938 0.25 11.109375 0.25 C 8.085938 0.25 5.820312 -0.25 4.3125 -1.25 C 2.8125 -2.257812 2.0625 -3.625 2.0625 -5.34375 L 4.6875 -5.34375 C 4.6875 -4.40625 5.210938 -3.664062 6.265625 -3.125 C 7.316406 -2.582031 8.929688 -2.3125 11.109375 -2.3125 C 11.828125 -2.3125 12.578125 -2.328125 13.359375 -2.359375 C 14.148438 -2.398438 14.882812 -2.484375 15.5625 -2.609375 C 16.238281 -2.742188 16.785156 -2.941406 17.203125 -3.203125 C 17.628906 -3.472656 17.84375 -3.832031 17.84375 -4.28125 L 17.84375 -4.59375 C 17.84375 -4.695312 17.796875 -4.820312 17.703125 -4.96875 C 17.617188 -5.125 17.378906 -5.296875 16.984375 -5.484375 C 16.585938 -5.679688 15.925781 -5.867188 15 -6.046875 C 14.070312 -6.222656 12.765625 -6.390625 11.078125 -6.546875 C 9.015625 -6.773438 7.320312 -7.015625 6 -7.265625 C 4.675781 -7.523438 3.691406 -7.945312 3.046875 -8.53125 C 2.410156 -9.113281 2.09375 -9.984375 2.09375 -11.140625 L 2.09375 -11.34375 C 2.09375 -12.769531 2.863281 -13.851562 4.40625 -14.59375 C 5.957031 -15.332031 8.375 -15.703125 11.65625 -15.703125 C 13.507812 -15.703125 15.109375 -15.53125 16.453125 -15.1875 C 17.804688 -14.851562 18.851562 -14.304688 19.59375 -13.546875 C 20.332031 -12.785156 20.703125 -11.757812 20.703125 -10.46875 Z M 18.078125 -10.46875 "/></g></g></g><g fill="#ffffff" fill-opacity="1"><g transform="translate(121.380457, 175.460276)"><g><path d="M 18.078125 -10.46875 C 18.078125 -11.132812 17.796875 -11.660156 17.234375 -12.046875 C 16.671875 -12.429688 15.90625 -12.707031 14.9375 -12.875 C 13.96875 -13.039062 12.875 -13.125 11.65625 -13.125 C 10.4375 -13.125 9.304688 -13.066406 8.265625 -12.953125 C 7.222656 -12.835938 6.382812 -12.648438 5.75 -12.390625 C 5.113281 -12.140625 4.796875 -11.804688 4.796875 -11.390625 L 4.796875 -11.15625 C 4.796875 -11.007812 4.832031 -10.847656 4.90625 -10.671875 C 4.988281 -10.503906 5.222656 -10.328125 5.609375 -10.140625 C 5.992188 -9.960938 6.628906 -9.789062 7.515625 -9.625 C 8.398438 -9.46875 9.640625 -9.3125 11.234375 -9.15625 C 13.191406 -8.976562 14.863281 -8.757812 16.25 -8.5 C 17.632812 -8.25 18.695312 -7.832031 19.4375 -7.25 C 20.175781 -6.664062 20.546875 -5.785156 20.546875 -4.609375 L 20.546875 -4.359375 C 20.546875 -2.648438 19.78125 -1.453125 18.25 -0.765625 C 16.71875 -0.0859375 14.335938 0.25 11.109375 0.25 C 8.085938 0.25 5.820312 -0.25 4.3125 -1.25 C 2.8125 -2.257812 2.0625 -3.625 2.0625 -5.34375 L 4.6875 -5.34375 C 4.6875 -4.40625 5.210938 -3.664062 6.265625 -3.125 C 7.316406 -2.582031 8.929688 -2.3125 11.109375 -2.3125 C 11.828125 -2.3125 12.578125 -2.328125 13.359375 -2.359375 C 14.148438 -2.398438 14.882812 -2.484375 15.5625 -2.609375 C 16.238281 -2.742188 16.785156 -2.941406 17.203125 -3.203125 C 17.628906 -3.472656 17.84375 -3.832031 17.84375 -4.28125 L 17.84375 -4.59375 C 17.84375 -4.695312 17.796875 -4.820312 17.703125 -4.96875 C 17.617188 -5.125 17.378906 -5.296875 16.984375 -5.484375 C 16.585938 -5.679688 15.925781 -5.867188 15 -6.046875 C 14.070312 -6.222656 12.765625 -6.390625 11.078125 -6.546875 C 9.015625 -6.773438 7.320312 -7.015625 6 -7.265625 C 4.675781 -7.523438 3.691406 -7.945312 3.046875 -8.53125 C 2.410156 -9.113281 2.09375 -9.984375 2.09375 -11.140625 L 2.09375 -11.34375 C 2.09375 -12.769531 2.863281 -13.851562 4.40625 -14.59375 C 5.957031 -15.332031 8.375 -15.703125 11.65625 -15.703125 C 13.507812 -15.703125 15.109375 -15.53125 16.453125 -15.1875 C 17.804688 -14.851562 18.851562 -14.304688 19.59375 -13.546875 C 20.332031 -12.785156 20.703125 -11.757812 20.703125 -10.46875 Z M 18.078125 -10.46875 "/></g></g></g><g fill="#ffffff" fill-opacity="1"><g transform="translate(146.414716, 175.460276)"><g><path d="M 17.0625 0 L 15.546875 -2.765625 L 4.671875 -2.765625 L 3.140625 0 L 0.125 0 L 8.609375 -15.390625 L 8.5625 -15.46875 L 11.65625 -15.46875 L 11.625 -15.390625 L 20.078125 0 Z M 6.078125 -5.34375 L 14.125 -5.34375 L 10.109375 -12.65625 Z M 6.078125 -5.34375 "/></g></g></g><g fill="#ffffff" fill-opacity="1"><g transform="translate(168.896632, 175.460276)"><g><path d="M 18 -15.46875 L 20.625 -15.46875 L 20.625 0 L 17.09375 0 L 5.828125 -12.53125 L 5.828125 0 L 3.203125 0 L 3.203125 -15.46875 L 6.671875 -15.46875 L 18 -2.90625 Z M 18 -15.46875 "/></g></g></g><g fill="#ffffff" fill-opacity="1"><g transform="translate(194.987913, 175.460276)"><g/></g></g><g fill="#ffffff" fill-opacity="1"><g transform="translate(207.569844, 175.460276)"><g><path d="M 19.484375 -13.125 L 5.828125 -13.125 L 5.828125 -8.71875 L 17.890625 -8.71875 L 17.890625 -6.375 L 5.828125 -6.375 L 5.828125 -2.34375 L 19.484375 -2.34375 L 19.484375 0 L 3.203125 0 L 3.203125 -15.46875 L 19.484375 -15.46875 Z M 19.484375 -13.125 "/></g></g></g><g fill="#ffffff" fill-opacity="1"><g transform="translate(230.902537, 175.460276)"><g><path d="M 12.53125 0.25 C 10.53125 0.25 8.859375 0.0390625 7.515625 -0.375 C 6.179688 -0.789062 5.113281 -1.363281 4.3125 -2.09375 C 3.519531 -2.832031 2.945312 -3.664062 2.59375 -4.59375 C 2.238281 -5.519531 2.0625 -6.488281 2.0625 -7.5 L 2.0625 -8.046875 C 2.0625 -9.054688 2.238281 -10.023438 2.59375 -10.953125 C 2.945312 -11.878906 3.519531 -12.707031 4.3125 -13.4375 C 5.113281 -14.175781 6.179688 -14.753906 7.515625 -15.171875 C 8.859375 -15.585938 10.53125 -15.796875 12.53125 -15.796875 C 14.695312 -15.796875 16.535156 -15.519531 18.046875 -14.96875 C 19.554688 -14.425781 20.71875 -13.703125 21.53125 -12.796875 C 22.351562 -11.898438 22.800781 -10.9375 22.875 -9.90625 L 20 -9.90625 C 19.894531 -10.5 19.519531 -11.050781 18.875 -11.5625 C 18.238281 -12.070312 17.378906 -12.472656 16.296875 -12.765625 C 15.210938 -13.066406 13.957031 -13.21875 12.53125 -13.21875 C 10.675781 -13.21875 9.175781 -13 8.03125 -12.5625 C 6.882812 -12.125 6.050781 -11.519531 5.53125 -10.75 C 5.007812 -9.976562 4.75 -9.078125 4.75 -8.046875 L 4.75 -7.5 C 4.75 -6.488281 5.007812 -5.59375 5.53125 -4.8125 C 6.050781 -4.03125 6.882812 -3.414062 8.03125 -2.96875 C 9.175781 -2.53125 10.675781 -2.3125 12.53125 -2.3125 C 14.125 -2.3125 15.429688 -2.460938 16.453125 -2.765625 C 17.484375 -3.066406 18.28125 -3.476562 18.84375 -4 C 19.414062 -4.53125 19.796875 -5.128906 19.984375 -5.796875 L 22.84375 -5.796875 C 22.664062 -4.710938 22.210938 -3.710938 21.484375 -2.796875 C 20.753906 -1.878906 19.660156 -1.140625 18.203125 -0.578125 C 16.753906 -0.0234375 14.863281 0.25 12.53125 0.25 Z M 12.53125 0.25 "/></g></g></g><g fill="#ffffff" fill-opacity="1"><g transform="translate(258.179757, 175.460276)"><g><path d="M 12.53125 0.25 C 10.53125 0.25 8.859375 0.046875 7.515625 -0.359375 C 6.179688 -0.773438 5.113281 -1.335938 4.3125 -2.046875 C 3.519531 -2.765625 2.945312 -3.566406 2.59375 -4.453125 C 2.238281 -5.335938 2.0625 -6.242188 2.0625 -7.171875 L 2.0625 -8.296875 C 2.0625 -9.265625 2.238281 -10.191406 2.59375 -11.078125 C 2.945312 -11.972656 3.519531 -12.773438 4.3125 -13.484375 C 5.113281 -14.191406 6.179688 -14.753906 7.515625 -15.171875 C 8.859375 -15.585938 10.53125 -15.796875 12.53125 -15.796875 C 14.488281 -15.796875 16.132812 -15.59375 17.46875 -15.1875 C 18.8125 -14.789062 19.882812 -14.242188 20.6875 -13.546875 C 21.5 -12.847656 22.085938 -12.054688 22.453125 -11.171875 C 22.816406 -10.285156 23 -9.363281 23 -8.40625 L 23 -7.265625 C 23 -6.359375 22.828125 -5.457031 22.484375 -4.5625 C 22.148438 -3.664062 21.585938 -2.851562 20.796875 -2.125 C 20.015625 -1.394531 18.945312 -0.816406 17.59375 -0.390625 C 16.25 0.0351562 14.5625 0.25 12.53125 0.25 Z M 12.53125 -2.3125 C 14.457031 -2.3125 15.984375 -2.515625 17.109375 -2.921875 C 18.242188 -3.328125 19.0625 -3.878906 19.5625 -4.578125 C 20.0625 -5.273438 20.3125 -6.050781 20.3125 -6.90625 L 20.3125 -8.046875 C 20.3125 -9.003906 20.039062 -9.875 19.5 -10.65625 C 18.957031 -11.4375 18.109375 -12.054688 16.953125 -12.515625 C 15.804688 -12.984375 14.332031 -13.21875 12.53125 -13.21875 C 10.675781 -13.21875 9.175781 -13.003906 8.03125 -12.578125 C 6.882812 -12.148438 6.050781 -11.566406 5.53125 -10.828125 C 5.007812 -10.085938 4.75 -9.242188 4.75 -8.296875 L 4.75 -7.171875 C 4.75 -6.253906 5.007812 -5.429688 5.53125 -4.703125 C 6.050781 -3.972656 6.882812 -3.390625 8.03125 -2.953125 C 9.175781 -2.523438 10.675781 -2.3125 12.53125 -2.3125 Z M 12.53125 -2.3125 "/></g></g></g><g fill="#ffffff" fill-opacity="1"><g transform="translate(285.508544, 175.460276)"><g><path d="M 5.796875 -15.46875 L 5.796875 -2.46875 L 18.6875 -2.46875 L 18.6875 0 L 3.171875 0 L 3.171875 -15.46875 Z M 5.796875 -15.46875 "/></g></g></g><g fill="#ffffff" fill-opacity="1"><g transform="translate(307.500608, 175.460276)"><g><path d="M 19.484375 -13.125 L 5.828125 -13.125 L 5.828125 -8.71875 L 17.890625 -8.71875 L 17.890625 -6.375 L 5.828125 -6.375 L 5.828125 -2.34375 L 19.484375 -2.34375 L 19.484375 0 L 3.203125 0 L 3.203125 -15.46875 L 19.484375 -15.46875 Z M 19.484375 -13.125 "/></g></g></g><g fill="#ffffff" fill-opacity="1"><g transform="translate(126.141126, 193.332849)"><g><path d="M 7.703125 0.15625 C 6.140625 0.15625 4.882812 -0.0507812 3.9375 -0.46875 C 3 -0.882812 2.320312 -1.457031 1.90625 -2.1875 C 1.5 -2.914062 1.296875 -3.726562 1.296875 -4.625 L 1.296875 -5.109375 C 1.296875 -6.015625 1.5 -6.828125 1.90625 -7.546875 C 2.320312 -8.273438 3 -8.847656 3.9375 -9.265625 C 4.882812 -9.679688 6.140625 -9.890625 7.703125 -9.890625 C 9.015625 -9.890625 10.132812 -9.726562 11.0625 -9.40625 C 11.988281 -9.082031 12.703125 -8.644531 13.203125 -8.09375 C 13.710938 -7.539062 13.988281 -6.910156 14.03125 -6.203125 L 12.59375 -6.203125 C 12.507812 -6.921875 12.03125 -7.5 11.15625 -7.9375 C 10.28125 -8.382812 9.128906 -8.609375 7.703125 -8.609375 C 5.921875 -8.609375 4.632812 -8.296875 3.84375 -7.671875 C 3.050781 -7.054688 2.65625 -6.203125 2.65625 -5.109375 L 2.65625 -4.625 C 2.65625 -3.550781 3.050781 -2.695312 3.84375 -2.0625 C 4.632812 -1.4375 5.921875 -1.125 7.703125 -1.125 C 9.242188 -1.125 10.398438 -1.347656 11.171875 -1.796875 C 11.953125 -2.253906 12.421875 -2.867188 12.578125 -3.640625 L 14.015625 -3.640625 C 13.921875 -2.921875 13.640625 -2.269531 13.171875 -1.6875 C 12.703125 -1.113281 12.019531 -0.660156 11.125 -0.328125 C 10.226562 -0.00390625 9.085938 0.15625 7.703125 0.15625 Z M 7.703125 0.15625 "/></g></g></g><g fill="#ffffff" fill-opacity="1"><g transform="translate(142.928334, 193.332849)"><g><path d="M 3.3125 -9.703125 L 3.3125 -1.234375 L 11.40625 -1.234375 L 11.40625 0 L 1.984375 0 L 1.984375 -9.703125 Z M 3.3125 -9.703125 "/></g></g></g><g fill="#ffffff" fill-opacity="1"><g transform="translate(156.400292, 193.332849)"><g><path d="M 10.734375 0 L 9.734375 -1.828125 L 2.609375 -1.828125 L 1.59375 0 L 0.078125 0 L 5.421875 -9.6875 L 5.40625 -9.703125 L 6.9375 -9.703125 L 6.9375 -9.6875 L 12.265625 0 Z M 3.3125 -3.125 L 9.03125 -3.125 L 6.171875 -8.3125 Z M 3.3125 -3.125 "/></g></g></g><g fill="#ffffff" fill-opacity="1"><g transform="translate(170.163343, 193.332849)"><g><path d="M 11.34375 -6.65625 C 11.34375 -7.320312 10.960938 -7.804688 10.203125 -8.109375 C 9.453125 -8.410156 8.429688 -8.5625 7.140625 -8.5625 C 6.265625 -8.5625 5.488281 -8.519531 4.8125 -8.4375 C 4.132812 -8.351562 3.609375 -8.222656 3.234375 -8.046875 C 2.859375 -7.878906 2.671875 -7.65625 2.671875 -7.375 L 2.671875 -7.125 C 2.671875 -6.976562 2.707031 -6.832031 2.78125 -6.6875 C 2.863281 -6.539062 3.039062 -6.398438 3.3125 -6.265625 C 3.59375 -6.140625 4.015625 -6.019531 4.578125 -5.90625 C 5.148438 -5.789062 5.921875 -5.6875 6.890625 -5.59375 C 8.171875 -5.476562 9.226562 -5.332031 10.0625 -5.15625 C 10.90625 -4.976562 11.53125 -4.707031 11.9375 -4.34375 C 12.351562 -3.988281 12.5625 -3.472656 12.5625 -2.796875 L 12.5625 -2.578125 C 12.5625 -1.648438 12.109375 -0.960938 11.203125 -0.515625 C 10.296875 -0.0664062 8.832031 0.15625 6.8125 0.15625 C 4.914062 0.15625 3.519531 -0.132812 2.625 -0.71875 C 1.738281 -1.300781 1.296875 -2.117188 1.296875 -3.171875 L 2.625 -3.171875 C 2.625 -2.515625 2.957031 -2.007812 3.625 -1.65625 C 4.300781 -1.300781 5.363281 -1.125 6.8125 -1.125 C 7.570312 -1.125 8.285156 -1.164062 8.953125 -1.25 C 9.628906 -1.332031 10.171875 -1.476562 10.578125 -1.6875 C 10.992188 -1.894531 11.203125 -2.191406 11.203125 -2.578125 L 11.203125 -2.796875 C 11.203125 -2.941406 11.160156 -3.082031 11.078125 -3.21875 C 10.992188 -3.351562 10.804688 -3.484375 10.515625 -3.609375 C 10.234375 -3.742188 9.796875 -3.867188 9.203125 -3.984375 C 8.609375 -4.097656 7.804688 -4.203125 6.796875 -4.296875 C 5.503906 -4.441406 4.453125 -4.601562 3.640625 -4.78125 C 2.828125 -4.96875 2.234375 -5.238281 1.859375 -5.59375 C 1.492188 -5.957031 1.3125 -6.46875 1.3125 -7.125 L 1.3125 -7.375 C 1.3125 -8.175781 1.769531 -8.785156 2.6875 -9.203125 C 3.601562 -9.628906 5.085938 -9.84375 7.140625 -9.84375 C 8.878906 -9.84375 10.234375 -9.59375 11.203125 -9.09375 C 12.171875 -8.59375 12.65625 -7.78125 12.65625 -6.65625 Z M 11.34375 -6.65625 "/></g></g></g><g fill="#ffffff" fill-opacity="1"><g transform="translate(185.543592, 193.332849)"><g><path d="M 11.34375 -6.65625 C 11.34375 -7.320312 10.960938 -7.804688 10.203125 -8.109375 C 9.453125 -8.410156 8.429688 -8.5625 7.140625 -8.5625 C 6.265625 -8.5625 5.488281 -8.519531 4.8125 -8.4375 C 4.132812 -8.351562 3.609375 -8.222656 3.234375 -8.046875 C 2.859375 -7.878906 2.671875 -7.65625 2.671875 -7.375 L 2.671875 -7.125 C 2.671875 -6.976562 2.707031 -6.832031 2.78125 -6.6875 C 2.863281 -6.539062 3.039062 -6.398438 3.3125 -6.265625 C 3.59375 -6.140625 4.015625 -6.019531 4.578125 -5.90625 C 5.148438 -5.789062 5.921875 -5.6875 6.890625 -5.59375 C 8.171875 -5.476562 9.226562 -5.332031 10.0625 -5.15625 C 10.90625 -4.976562 11.53125 -4.707031 11.9375 -4.34375 C 12.351562 -3.988281 12.5625 -3.472656 12.5625 -2.796875 L 12.5625 -2.578125 C 12.5625 -1.648438 12.109375 -0.960938 11.203125 -0.515625 C 10.296875 -0.0664062 8.832031 0.15625 6.8125 0.15625 C 4.914062 0.15625 3.519531 -0.132812 2.625 -0.71875 C 1.738281 -1.300781 1.296875 -2.117188 1.296875 -3.171875 L 2.625 -3.171875 C 2.625 -2.515625 2.957031 -2.007812 3.625 -1.65625 C 4.300781 -1.300781 5.363281 -1.125 6.8125 -1.125 C 7.570312 -1.125 8.285156 -1.164062 8.953125 -1.25 C 9.628906 -1.332031 10.171875 -1.476562 10.578125 -1.6875 C 10.992188 -1.894531 11.203125 -2.191406 11.203125 -2.578125 L 11.203125 -2.796875 C 11.203125 -2.941406 11.160156 -3.082031 11.078125 -3.21875 C 10.992188 -3.351562 10.804688 -3.484375 10.515625 -3.609375 C 10.234375 -3.742188 9.796875 -3.867188 9.203125 -3.984375 C 8.609375 -4.097656 7.804688 -4.203125 6.796875 -4.296875 C 5.503906 -4.441406 4.453125 -4.601562 3.640625 -4.78125 C 2.828125 -4.96875 2.234375 -5.238281 1.859375 -5.59375 C 1.492188 -5.957031 1.3125 -6.46875 1.3125 -7.125 L 1.3125 -7.375 C 1.3125 -8.175781 1.769531 -8.785156 2.6875 -9.203125 C 3.601562 -9.628906 5.085938 -9.84375 7.140625 -9.84375 C 8.878906 -9.84375 10.234375 -9.59375 11.203125 -9.09375 C 12.171875 -8.59375 12.65625 -7.78125 12.65625 -6.65625 Z M 11.34375 -6.65625 "/></g></g></g><g fill="#ffffff" fill-opacity="1"><g transform="translate(200.923844, 193.332849)"><g><path d="M 11.90625 -8.515625 L 3.328125 -8.515625 L 3.328125 -5.328125 L 11.0625 -5.328125 L 11.0625 -4.140625 L 3.328125 -4.140625 L 3.328125 -1.1875 L 11.90625 -1.1875 L 11.90625 0 L 2 0 L 2 -9.703125 L 11.90625 -9.703125 Z M 11.90625 -8.515625 "/></g></g></g><g fill="#ffffff" fill-opacity="1"><g transform="translate(215.236751, 193.332849)"><g/></g></g><g fill="#ffffff" fill-opacity="1"><g transform="translate(223.129398, 193.332849)"><g><path d="M 2 0 L 2 -9.703125 L 8.40625 -9.703125 C 9.40625 -9.703125 10.210938 -9.503906 10.828125 -9.109375 C 11.441406 -8.710938 11.75 -8.109375 11.75 -7.296875 L 11.75 -7.0625 C 11.75 -6.613281 11.6875 -6.253906 11.5625 -5.984375 C 11.4375 -5.710938 11.273438 -5.503906 11.078125 -5.359375 C 10.878906 -5.222656 10.6875 -5.125 10.5 -5.0625 C 10.6875 -5 10.898438 -4.898438 11.140625 -4.765625 C 11.378906 -4.640625 11.582031 -4.445312 11.75 -4.1875 C 11.914062 -3.925781 12 -3.566406 12 -3.109375 L 12 -2.796875 C 12 -1.878906 11.640625 -1.179688 10.921875 -0.703125 C 10.203125 -0.234375 9.203125 0 7.921875 0 Z M 3.328125 -5.75 L 8.40625 -5.75 C 9.132812 -5.75 9.648438 -5.84375 9.953125 -6.03125 C 10.253906 -6.226562 10.40625 -6.570312 10.40625 -7.0625 L 10.40625 -7.296875 C 10.40625 -7.640625 10.257812 -7.910156 9.96875 -8.109375 C 9.675781 -8.304688 9.15625 -8.40625 8.40625 -8.40625 L 3.328125 -8.40625 Z M 3.328125 -1.296875 L 7.921875 -1.296875 C 8.585938 -1.296875 9.117188 -1.367188 9.515625 -1.515625 C 9.921875 -1.660156 10.207031 -1.84375 10.375 -2.0625 C 10.550781 -2.289062 10.640625 -2.535156 10.640625 -2.796875 L 10.640625 -3.109375 C 10.640625 -3.628906 10.421875 -3.96875 9.984375 -4.125 C 9.554688 -4.289062 8.867188 -4.375 7.921875 -4.375 L 3.328125 -4.375 Z M 3.328125 -1.296875 "/></g></g></g><g clip-path="url(#516a904b7b)"><g clip-path="url(#701368d505)"><path fill="#f46914" d="M 124.574219 187.269531 L 121.753906 185.921875 C 121.710938 185.902344 121.675781 185.878906 121.644531 185.84375 L 119.492188 183.574219 C 119.417969 183.5 119.332031 183.460938 119.226562 183.460938 C 119.121094 183.460938 119.035156 183.5 118.960938 183.574219 L 116.808594 185.84375 C 116.777344 185.878906 116.742188 185.902344 116.699219 185.921875 L 113.875 187.269531 C 113.78125 187.316406 113.71875 187.386719 113.6875 187.488281 C 113.652344 187.585938 113.664062 187.683594 113.710938 187.773438 L 115.207031 190.523438 C 115.226562 190.5625 115.242188 190.605469 115.246094 190.648438 L 115.65625 193.75 C 115.667969 193.855469 115.71875 193.9375 115.804688 194 C 115.886719 194.0625 115.980469 194.082031 116.085938 194.0625 L 119.160156 193.492188 C 119.203125 193.484375 119.25 193.484375 119.292969 193.492188 L 122.371094 194.0625 C 122.472656 194.082031 122.566406 194.0625 122.652344 194 C 122.734375 193.9375 122.785156 193.855469 122.800781 193.75 L 123.207031 190.648438 C 123.210938 190.605469 123.226562 190.5625 123.246094 190.523438 L 124.738281 187.773438 C 124.789062 187.683594 124.796875 187.585938 124.765625 187.488281 C 124.734375 187.386719 124.671875 187.316406 124.574219 187.269531 Z M 124.574219 187.269531 " fill-opacity="1" fill-rule="nonzero"/></g></g><g clip-path="url(#e161119b90)"><g clip-path="url(#524669f1fd)"><path fill="#f46914" d="M 247.679688 187.269531 L 244.855469 185.921875 C 244.816406 185.902344 244.78125 185.878906 244.75 185.84375 L 242.597656 183.574219 C 242.523438 183.5 242.433594 183.460938 242.332031 183.460938 C 242.226562 183.460938 242.136719 183.5 242.066406 183.574219 L 239.914062 185.84375 C 239.882812 185.878906 239.84375 185.902344 239.804688 185.921875 L 236.980469 187.269531 C 236.886719 187.316406 236.824219 187.386719 236.789062 187.488281 C 236.757812 187.585938 236.765625 187.683594 236.816406 187.773438 L 238.3125 190.523438 C 238.332031 190.5625 238.347656 190.605469 238.351562 190.648438 L 238.761719 193.75 C 238.773438 193.855469 238.824219 193.9375 238.90625 194 C 238.992188 194.0625 239.085938 194.082031 239.1875 194.0625 L 242.265625 193.492188 C 242.308594 193.484375 242.355469 193.484375 242.398438 193.492188 L 245.472656 194.0625 C 245.578125 194.082031 245.671875 194.0625 245.753906 194 C 245.839844 193.9375 245.890625 193.855469 245.902344 193.75 L 246.3125 190.648438 C 246.316406 190.605469 246.332031 190.5625 246.351562 190.523438 L 247.84375 187.773438 C 247.894531 187.683594 247.902344 187.585938 247.871094 187.488281 C 247.839844 187.386719 247.773438 187.316406 247.679688 187.269531 Z M 247.679688 187.269531 " fill-opacity="1" fill-rule="nonzero"/></g></g><g clip-path="url(#1e47d10fcb)"><path fill="#ffffff" d="M 149.742188 216.246094 L 145.871094 210.292969 L 148.265625 211.699219 Z M 149.742188 216.246094 " fill-opacity="1" fill-rule="nonzero"/></g><g clip-path="url(#5a8b41a459)"><path fill="#ffffff" d="M 152.132812 208.890625 L 148.265625 211.699219 L 145.871094 210.292969 Z M 152.132812 208.890625 " fill-opacity="1" fill-rule="nonzero"/></g><g clip-path="url(#d4761290a8)"><path fill="#ffffff" d="M 152.132812 208.890625 L 145.871094 210.292969 L 147.351562 208.890625 Z M 152.132812 208.890625 " fill-opacity="1" fill-rule="nonzero"/></g><g clip-path="url(#7571a5174c)"><path fill="#ffffff" d="M 147.351562 208.890625 L 145.871094 210.292969 L 145.871094 204.339844 Z M 147.351562 208.890625 " fill-opacity="1" fill-rule="nonzero"/></g><g clip-path="url(#66dd2f8d19)"><path fill="#ffffff" d="M 145.871094 204.339844 L 145.871094 210.292969 L 144.394531 208.890625 Z M 145.871094 204.339844 " fill-opacity="1" fill-rule="nonzero"/></g><g clip-path="url(#5b58e48b21)"><path fill="#ffffff" d="M 145.871094 210.292969 L 143.480469 211.699219 L 139.613281 208.890625 Z M 145.871094 210.292969 " fill-opacity="1" fill-rule="nonzero"/></g><g clip-path="url(#bb7b7e45d0)"><path fill="#ffffff" d="M 144.394531 208.890625 L 145.871094 210.292969 L 139.613281 208.890625 Z M 144.394531 208.890625 " fill-opacity="1" fill-rule="nonzero"/></g><g clip-path="url(#beb28c1336)"><path fill="#ffffff" d="M 145.871094 210.292969 L 145.871094 213.4375 L 142.003906 216.246094 Z M 145.871094 210.292969 " fill-opacity="1" fill-rule="nonzero"/></g><g clip-path="url(#5673700f76)"><path fill="#ffffff" d="M 149.742188 216.246094 L 145.871094 213.4375 L 145.871094 210.292969 Z M 149.742188 216.246094 " fill-opacity="1" fill-rule="nonzero"/></g><g clip-path="url(#8c287ab442)"><path fill="#ffffff" d="M 145.871094 210.292969 L 142.003906 216.246094 L 143.480469 211.699219 Z M 145.871094 210.292969 " fill-opacity="1" fill-rule="nonzero"/></g><g clip-path="url(#bb41826eb9)"><path fill="#ffffff" d="M 178.902344 216.246094 L 175.035156 210.292969 L 177.425781 211.699219 Z M 178.902344 216.246094 " fill-opacity="1" fill-rule="nonzero"/></g><g clip-path="url(#aa93a8531b)"><path fill="#ffffff" d="M 181.292969 208.890625 L 177.425781 211.699219 L 175.035156 210.292969 Z M 181.292969 208.890625 " fill-opacity="1" fill-rule="nonzero"/></g><g clip-path="url(#afb10bf8b0)"><path fill="#ffffff" d="M 181.292969 208.890625 L 175.035156 210.292969 L 176.515625 208.890625 Z M 181.292969 208.890625 " fill-opacity="1" fill-rule="nonzero"/></g><g clip-path="url(#f44d745b80)"><path fill="#ffffff" d="M 176.515625 208.890625 L 175.035156 210.292969 L 175.035156 204.339844 Z M 176.515625 208.890625 " fill-opacity="1" fill-rule="nonzero"/></g><g clip-path="url(#d35241ac03)"><path fill="#ffffff" d="M 175.035156 204.339844 L 175.035156 210.292969 L 173.558594 208.890625 Z M 175.035156 204.339844 " fill-opacity="1" fill-rule="nonzero"/></g><g clip-path="url(#352c191398)"><path fill="#ffffff" d="M 175.035156 210.292969 L 172.644531 211.699219 L 168.777344 208.890625 Z M 175.035156 210.292969 " fill-opacity="1" fill-rule="nonzero"/></g><g clip-path="url(#13f75c0e6c)"><path fill="#ffffff" d="M 173.558594 208.890625 L 175.035156 210.292969 L 168.777344 208.890625 Z M 173.558594 208.890625 " fill-opacity="1" fill-rule="nonzero"/></g><g clip-path="url(#81fd98639d)"><path fill="#ffffff" d="M 175.035156 210.292969 L 175.035156 213.4375 L 171.167969 216.246094 Z M 175.035156 210.292969 " fill-opacity="1" fill-rule="nonzero"/></g><g clip-path="url(#7117bf431a)"><path fill="#ffffff" d="M 178.902344 216.246094 L 175.035156 213.4375 L 175.035156 210.292969 Z M 178.902344 216.246094 " fill-opacity="1" fill-rule="nonzero"/></g><g clip-path="url(#bdbd25b98a)"><path fill="#ffffff" d="M 175.035156 210.292969 L 171.167969 216.246094 L 172.644531 211.699219 Z M 175.035156 210.292969 " fill-opacity="1" fill-rule="nonzero"/></g><g fill="#ffffff" fill-opacity="1"><g transform="translate(45.483499, 273.616681)"><g><path d="M 9.4375 -8.53125 L 11.0625 -8.53125 L 6.375 0 L 4.65625 0 L -0.046875 -8.53125 L 1.671875 -8.53125 L 5.5625 -1.484375 Z M 9.4375 -8.53125 "/></g></g></g><g fill="#ffffff" fill-opacity="1"><g transform="translate(57.784401, 273.616681)"><g><path d="M 6.90625 0.140625 C 5.8125 0.140625 4.894531 0.0234375 4.15625 -0.203125 C 3.414062 -0.429688 2.820312 -0.738281 2.375 -1.125 C 1.9375 -1.519531 1.617188 -1.960938 1.421875 -2.453125 C 1.234375 -2.941406 1.140625 -3.441406 1.140625 -3.953125 L 1.140625 -4.578125 C 1.140625 -5.109375 1.234375 -5.617188 1.421875 -6.109375 C 1.617188 -6.609375 1.9375 -7.050781 2.375 -7.4375 C 2.820312 -7.820312 3.414062 -8.128906 4.15625 -8.359375 C 4.894531 -8.597656 5.8125 -8.71875 6.90625 -8.71875 C 7.988281 -8.71875 8.898438 -8.601562 9.640625 -8.375 C 10.378906 -8.15625 10.972656 -7.851562 11.421875 -7.46875 C 11.867188 -7.082031 12.191406 -6.644531 12.390625 -6.15625 C 12.585938 -5.675781 12.6875 -5.171875 12.6875 -4.640625 L 12.6875 -4.015625 C 12.6875 -3.503906 12.59375 -3.003906 12.40625 -2.515625 C 12.21875 -2.023438 11.90625 -1.578125 11.46875 -1.171875 C 11.039062 -0.765625 10.453125 -0.441406 9.703125 -0.203125 C 8.960938 0.0234375 8.03125 0.140625 6.90625 0.140625 Z M 6.90625 -1.28125 C 7.96875 -1.28125 8.8125 -1.390625 9.4375 -1.609375 C 10.0625 -1.835938 10.507812 -2.140625 10.78125 -2.515625 C 11.0625 -2.898438 11.203125 -3.332031 11.203125 -3.8125 L 11.203125 -4.4375 C 11.203125 -4.96875 11.050781 -5.445312 10.75 -5.875 C 10.457031 -6.3125 9.992188 -6.65625 9.359375 -6.90625 C 8.722656 -7.164062 7.90625 -7.296875 6.90625 -7.296875 C 5.882812 -7.296875 5.054688 -7.175781 4.421875 -6.9375 C 3.796875 -6.695312 3.335938 -6.375 3.046875 -5.96875 C 2.753906 -5.5625 2.609375 -5.097656 2.609375 -4.578125 L 2.609375 -3.953125 C 2.609375 -3.453125 2.753906 -3 3.046875 -2.59375 C 3.335938 -2.1875 3.796875 -1.863281 4.421875 -1.625 C 5.054688 -1.394531 5.882812 -1.28125 6.90625 -1.28125 Z M 6.90625 -1.28125 "/></g></g></g><g fill="#ffffff" fill-opacity="1"><g transform="translate(72.840719, 273.616681)"><g><path d="M 9.71875 -8.53125 L 9.71875 -7.140625 L 5.5625 -7.140625 L 5.5625 0 L 4.109375 0 L 4.109375 -7.140625 L -0.046875 -7.140625 L -0.046875 -8.53125 Z M 9.71875 -8.53125 "/></g></g></g><g fill="#ffffff" fill-opacity="1"><g transform="translate(83.735508, 273.616681)"><g><path d="M 11.859375 -6.046875 C 11.859375 -5.429688 11.734375 -4.960938 11.484375 -4.640625 C 11.242188 -4.328125 10.914062 -4.101562 10.5 -3.96875 C 10.925781 -3.738281 11.226562 -3.441406 11.40625 -3.078125 C 11.59375 -2.710938 11.6875 -2.304688 11.6875 -1.859375 L 11.6875 -0.859375 C 11.6875 -0.703125 11.691406 -0.550781 11.703125 -0.40625 C 11.722656 -0.269531 11.742188 -0.132812 11.765625 0 L 10.09375 0 C 10.070312 -0.132812 10.054688 -0.269531 10.046875 -0.40625 C 10.035156 -0.539062 10.03125 -0.671875 10.03125 -0.796875 L 10.03125 -1.75 C 10.03125 -1.976562 10.007812 -2.207031 9.96875 -2.4375 C 9.9375 -2.675781 9.820312 -2.878906 9.625 -3.046875 C 9.425781 -3.210938 9.085938 -3.296875 8.609375 -3.296875 L 3.3125 -3.296875 L 3.3125 0 L 1.765625 0 L 1.765625 -8.53125 L 9.203125 -8.53125 C 10.035156 -8.53125 10.6875 -8.332031 11.15625 -7.9375 C 11.625 -7.539062 11.859375 -6.960938 11.859375 -6.203125 Z M 3.3125 -4.8125 L 9.203125 -4.8125 C 9.609375 -4.8125 9.90625 -4.929688 10.09375 -5.171875 C 10.28125 -5.421875 10.375 -5.710938 10.375 -6.046875 L 10.375 -6.203125 C 10.375 -6.335938 10.34375 -6.472656 10.28125 -6.609375 C 10.21875 -6.753906 10.101562 -6.875 9.9375 -6.96875 C 9.769531 -7.0625 9.523438 -7.109375 9.203125 -7.109375 L 3.3125 -7.109375 Z M 3.3125 -4.8125 "/></g></g></g><g fill="#ffffff" fill-opacity="1"><g transform="translate(97.897024, 273.616681)"><g><path d="M 10.75 -7.234375 L 3.21875 -7.234375 L 3.21875 -4.8125 L 9.875 -4.8125 L 9.875 -3.515625 L 3.21875 -3.515625 L 3.21875 -1.296875 L 10.75 -1.296875 L 10.75 0 L 1.765625 0 L 1.765625 -8.53125 L 10.75 -8.53125 Z M 10.75 -7.234375 "/></g></g></g><g fill="#ffffff" fill-opacity="1"><g transform="translate(110.751851, 273.616681)"><g/></g></g><g fill="#ffffff" fill-opacity="1"><g transform="translate(117.683949, 273.616681)"><g><path d="M 6.203125 -9.328125 L 7.390625 -10.78125 L 9.09375 -10.78125 L 7.6875 -9.328125 Z M 10.75 -7.234375 L 3.21875 -7.234375 L 3.21875 -4.8125 L 9.875 -4.8125 L 9.875 -3.515625 L 3.21875 -3.515625 L 3.21875 -1.296875 L 10.75 -1.296875 L 10.75 0 L 1.765625 0 L 1.765625 -8.53125 L 10.75 -8.53125 Z M 10.75 -7.234375 "/></g></g></g><g fill="#ffffff" fill-opacity="1"><g transform="translate(130.538777, 273.616681)"><g><path d="M 6.90625 0.140625 C 5.8125 0.140625 4.894531 0.0234375 4.15625 -0.203125 C 3.414062 -0.429688 2.820312 -0.75 2.375 -1.15625 C 1.9375 -1.5625 1.617188 -2.019531 1.421875 -2.53125 C 1.234375 -3.039062 1.140625 -3.578125 1.140625 -4.140625 L 1.140625 -4.4375 C 1.140625 -5 1.234375 -5.535156 1.421875 -6.046875 C 1.617188 -6.554688 1.9375 -7.007812 2.375 -7.40625 C 2.820312 -7.8125 3.414062 -8.128906 4.15625 -8.359375 C 4.894531 -8.597656 5.8125 -8.71875 6.90625 -8.71875 C 8.101562 -8.71875 9.117188 -8.566406 9.953125 -8.265625 C 10.785156 -7.960938 11.425781 -7.5625 11.875 -7.0625 C 12.332031 -6.5625 12.578125 -6.023438 12.609375 -5.453125 L 11.03125 -5.453125 C 10.976562 -5.785156 10.769531 -6.09375 10.40625 -6.375 C 10.050781 -6.65625 9.578125 -6.878906 8.984375 -7.046875 C 8.390625 -7.210938 7.695312 -7.296875 6.90625 -7.296875 C 5.882812 -7.296875 5.054688 -7.171875 4.421875 -6.921875 C 3.796875 -6.679688 3.335938 -6.347656 3.046875 -5.921875 C 2.753906 -5.503906 2.609375 -5.007812 2.609375 -4.4375 L 2.609375 -4.140625 C 2.609375 -3.578125 2.753906 -3.078125 3.046875 -2.640625 C 3.335938 -2.210938 3.796875 -1.878906 4.421875 -1.640625 C 5.054688 -1.398438 5.882812 -1.28125 6.90625 -1.28125 C 7.789062 -1.28125 8.515625 -1.363281 9.078125 -1.53125 C 9.640625 -1.695312 10.078125 -1.921875 10.390625 -2.203125 C 10.703125 -2.492188 10.910156 -2.828125 11.015625 -3.203125 L 12.59375 -3.203125 C 12.5 -2.597656 12.25 -2.039062 11.84375 -1.53125 C 11.445312 -1.03125 10.847656 -0.625 10.046875 -0.3125 C 9.242188 -0.0078125 8.195312 0.140625 6.90625 0.140625 Z M 6.90625 0.140625 "/></g></g></g><g fill="#ffffff" fill-opacity="1"><g transform="translate(145.566688, 273.616681)"><g><path d="M 6.90625 0.140625 C 5.8125 0.140625 4.894531 0.0234375 4.15625 -0.203125 C 3.414062 -0.429688 2.820312 -0.738281 2.375 -1.125 C 1.9375 -1.519531 1.617188 -1.960938 1.421875 -2.453125 C 1.234375 -2.941406 1.140625 -3.441406 1.140625 -3.953125 L 1.140625 -4.578125 C 1.140625 -5.109375 1.234375 -5.617188 1.421875 -6.109375 C 1.617188 -6.609375 1.9375 -7.050781 2.375 -7.4375 C 2.820312 -7.820312 3.414062 -8.128906 4.15625 -8.359375 C 4.894531 -8.597656 5.8125 -8.71875 6.90625 -8.71875 C 7.988281 -8.71875 8.898438 -8.601562 9.640625 -8.375 C 10.378906 -8.15625 10.972656 -7.851562 11.421875 -7.46875 C 11.867188 -7.082031 12.191406 -6.644531 12.390625 -6.15625 C 12.585938 -5.675781 12.6875 -5.171875 12.6875 -4.640625 L 12.6875 -4.015625 C 12.6875 -3.503906 12.59375 -3.003906 12.40625 -2.515625 C 12.21875 -2.023438 11.90625 -1.578125 11.46875 -1.171875 C 11.039062 -0.765625 10.453125 -0.441406 9.703125 -0.203125 C 8.960938 0.0234375 8.03125 0.140625 6.90625 0.140625 Z M 6.90625 -1.28125 C 7.96875 -1.28125 8.8125 -1.390625 9.4375 -1.609375 C 10.0625 -1.835938 10.507812 -2.140625 10.78125 -2.515625 C 11.0625 -2.898438 11.203125 -3.332031 11.203125 -3.8125 L 11.203125 -4.4375 C 11.203125 -4.96875 11.050781 -5.445312 10.75 -5.875 C 10.457031 -6.3125 9.992188 -6.65625 9.359375 -6.90625 C 8.722656 -7.164062 7.90625 -7.296875 6.90625 -7.296875 C 5.882812 -7.296875 5.054688 -7.175781 4.421875 -6.9375 C 3.796875 -6.695312 3.335938 -6.375 3.046875 -5.96875 C 2.753906 -5.5625 2.609375 -5.097656 2.609375 -4.578125 L 2.609375 -3.953125 C 2.609375 -3.453125 2.753906 -3 3.046875 -2.59375 C 3.335938 -2.1875 3.796875 -1.863281 4.421875 -1.625 C 5.054688 -1.394531 5.882812 -1.28125 6.90625 -1.28125 Z M 6.90625 -1.28125 "/></g></g></g><g fill="#ffffff" fill-opacity="1"><g transform="translate(160.623003, 273.616681)"><g><path d="M 3.203125 -8.53125 L 3.203125 -1.359375 L 10.3125 -1.359375 L 10.3125 0 L 1.75 0 L 1.75 -8.53125 Z M 3.203125 -8.53125 "/></g></g></g><g fill="#ffffff" fill-opacity="1"><g transform="translate(172.739263, 273.616681)"><g><path d="M 10.75 -7.234375 L 3.21875 -7.234375 L 3.21875 -4.8125 L 9.875 -4.8125 L 9.875 -3.515625 L 3.21875 -3.515625 L 3.21875 -1.296875 L 10.75 -1.296875 L 10.75 0 L 1.765625 0 L 1.765625 -8.53125 L 10.75 -8.53125 Z M 10.75 -7.234375 "/></g></g></g><g fill="#ffffff" fill-opacity="1"><g transform="translate(185.594091, 273.616681)"><g/></g></g><g fill="#ffffff" fill-opacity="1"><g transform="translate(192.526188, 273.616681)"><g><path d="M 6.765625 -8.53125 C 7.816406 -8.53125 8.691406 -8.457031 9.390625 -8.3125 C 10.097656 -8.164062 10.660156 -7.957031 11.078125 -7.6875 C 11.503906 -7.425781 11.820312 -7.117188 12.03125 -6.765625 C 12.238281 -6.421875 12.375 -6.050781 12.4375 -5.65625 C 12.507812 -5.257812 12.546875 -4.851562 12.546875 -4.4375 L 12.546875 -3.8125 C 12.546875 -3.414062 12.507812 -3.03125 12.4375 -2.65625 C 12.375 -2.28125 12.238281 -1.929688 12.03125 -1.609375 C 11.820312 -1.285156 11.503906 -1 11.078125 -0.75 C 10.660156 -0.507812 10.097656 -0.320312 9.390625 -0.1875 C 8.691406 -0.0625 7.816406 0 6.765625 0 L 1.765625 0 L 1.765625 -8.53125 Z M 11.0625 -3.8125 L 11.0625 -4.4375 C 11.0625 -4.8125 11.019531 -5.160156 10.9375 -5.484375 C 10.851562 -5.816406 10.671875 -6.101562 10.390625 -6.34375 C 10.109375 -6.59375 9.679688 -6.78125 9.109375 -6.90625 C 8.535156 -7.039062 7.753906 -7.109375 6.765625 -7.109375 L 3.21875 -7.109375 L 3.21875 -1.421875 L 6.765625 -1.421875 C 7.785156 -1.421875 8.585938 -1.476562 9.171875 -1.59375 C 9.753906 -1.707031 10.179688 -1.867188 10.453125 -2.078125 C 10.722656 -2.296875 10.890625 -2.550781 10.953125 -2.84375 C 11.023438 -3.132812 11.0625 -3.457031 11.0625 -3.8125 Z M 11.0625 -3.8125 "/></g></g></g><g fill="#ffffff" fill-opacity="1"><g transform="translate(207.440472, 273.616681)"><g><path d="M 10.75 -7.234375 L 3.21875 -7.234375 L 3.21875 -4.8125 L 9.875 -4.8125 L 9.875 -3.515625 L 3.21875 -3.515625 L 3.21875 -1.296875 L 10.75 -1.296875 L 10.75 0 L 1.765625 0 L 1.765625 -8.53125 L 10.75 -8.53125 Z M 10.75 -7.234375 "/></g></g></g><g fill="#ffffff" fill-opacity="1"><g transform="translate(220.295299, 273.616681)"><g/></g></g><g fill="#ffffff" fill-opacity="1"><g transform="translate(227.227397, 273.616681)"><g><path d="M 6.90625 0.140625 C 5.8125 0.140625 4.894531 0.0234375 4.15625 -0.203125 C 3.414062 -0.429688 2.820312 -0.75 2.375 -1.15625 C 1.9375 -1.5625 1.617188 -2.019531 1.421875 -2.53125 C 1.234375 -3.039062 1.140625 -3.578125 1.140625 -4.140625 L 1.140625 -4.4375 C 1.140625 -5 1.234375 -5.535156 1.421875 -6.046875 C 1.617188 -6.554688 1.9375 -7.007812 2.375 -7.40625 C 2.820312 -7.8125 3.414062 -8.128906 4.15625 -8.359375 C 4.894531 -8.597656 5.8125 -8.71875 6.90625 -8.71875 C 8.101562 -8.71875 9.117188 -8.566406 9.953125 -8.265625 C 10.785156 -7.960938 11.425781 -7.5625 11.875 -7.0625 C 12.332031 -6.5625 12.578125 -6.023438 12.609375 -5.453125 L 11.03125 -5.453125 C 10.976562 -5.785156 10.769531 -6.09375 10.40625 -6.375 C 10.050781 -6.65625 9.578125 -6.878906 8.984375 -7.046875 C 8.390625 -7.210938 7.695312 -7.296875 6.90625 -7.296875 C 5.882812 -7.296875 5.054688 -7.171875 4.421875 -6.921875 C 3.796875 -6.679688 3.335938 -6.347656 3.046875 -5.921875 C 2.753906 -5.503906 2.609375 -5.007812 2.609375 -4.4375 L 2.609375 -4.140625 C 2.609375 -3.578125 2.753906 -3.078125 3.046875 -2.640625 C 3.335938 -2.210938 3.796875 -1.878906 4.421875 -1.640625 C 5.054688 -1.398438 5.882812 -1.28125 6.90625 -1.28125 C 7.789062 -1.28125 8.515625 -1.363281 9.078125 -1.53125 C 9.640625 -1.695312 10.078125 -1.921875 10.390625 -2.203125 C 10.703125 -2.492188 10.910156 -2.828125 11.015625 -3.203125 L 12.59375 -3.203125 C 12.5 -2.597656 12.25 -2.039062 11.84375 -1.53125 C 11.445312 -1.03125 10.847656 -0.625 10.046875 -0.3125 C 9.242188 -0.0078125 8.195312 0.140625 6.90625 0.140625 Z M 6.90625 0.140625 "/></g></g></g><g fill="#ffffff" fill-opacity="1"><g transform="translate(242.255308, 273.616681)"><g><path d="M 6.90625 0.140625 C 5.8125 0.140625 4.894531 0.0234375 4.15625 -0.203125 C 3.414062 -0.429688 2.820312 -0.738281 2.375 -1.125 C 1.9375 -1.519531 1.617188 -1.960938 1.421875 -2.453125 C 1.234375 -2.941406 1.140625 -3.441406 1.140625 -3.953125 L 1.140625 -4.578125 C 1.140625 -5.109375 1.234375 -5.617188 1.421875 -6.109375 C 1.617188 -6.609375 1.9375 -7.050781 2.375 -7.4375 C 2.820312 -7.820312 3.414062 -8.128906 4.15625 -8.359375 C 4.894531 -8.597656 5.8125 -8.71875 6.90625 -8.71875 C 7.988281 -8.71875 8.898438 -8.601562 9.640625 -8.375 C 10.378906 -8.15625 10.972656 -7.851562 11.421875 -7.46875 C 11.867188 -7.082031 12.191406 -6.644531 12.390625 -6.15625 C 12.585938 -5.675781 12.6875 -5.171875 12.6875 -4.640625 L 12.6875 -4.015625 C 12.6875 -3.503906 12.59375 -3.003906 12.40625 -2.515625 C 12.21875 -2.023438 11.90625 -1.578125 11.46875 -1.171875 C 11.039062 -0.765625 10.453125 -0.441406 9.703125 -0.203125 C 8.960938 0.0234375 8.03125 0.140625 6.90625 0.140625 Z M 6.90625 -1.28125 C 7.96875 -1.28125 8.8125 -1.390625 9.4375 -1.609375 C 10.0625 -1.835938 10.507812 -2.140625 10.78125 -2.515625 C 11.0625 -2.898438 11.203125 -3.332031 11.203125 -3.8125 L 11.203125 -4.4375 C 11.203125 -4.96875 11.050781 -5.445312 10.75 -5.875 C 10.457031 -6.3125 9.992188 -6.65625 9.359375 -6.90625 C 8.722656 -7.164062 7.90625 -7.296875 6.90625 -7.296875 C 5.882812 -7.296875 5.054688 -7.175781 4.421875 -6.9375 C 3.796875 -6.695312 3.335938 -6.375 3.046875 -5.96875 C 2.753906 -5.5625 2.609375 -5.097656 2.609375 -4.578125 L 2.609375 -3.953125 C 2.609375 -3.453125 2.753906 -3 3.046875 -2.59375 C 3.335938 -2.1875 3.796875 -1.863281 4.421875 -1.625 C 5.054688 -1.394531 5.882812 -1.28125 6.90625 -1.28125 Z M 6.90625 -1.28125 "/></g></g></g><g fill="#ffffff" fill-opacity="1"><g transform="translate(257.311635, 273.616681)"><g><path d="M 9.921875 -8.53125 L 11.375 -8.53125 L 11.375 0 L 9.421875 0 L 3.21875 -6.90625 L 3.21875 0 L 1.765625 0 L 1.765625 -8.53125 L 3.6875 -8.53125 L 9.921875 -1.609375 Z M 9.921875 -8.53125 "/></g></g></g><g fill="#ffffff" fill-opacity="1"><g transform="translate(271.686214, 273.616681)"><g><path d="M 6.765625 -8.53125 C 7.816406 -8.53125 8.691406 -8.457031 9.390625 -8.3125 C 10.097656 -8.164062 10.660156 -7.957031 11.078125 -7.6875 C 11.503906 -7.425781 11.820312 -7.117188 12.03125 -6.765625 C 12.238281 -6.421875 12.375 -6.050781 12.4375 -5.65625 C 12.507812 -5.257812 12.546875 -4.851562 12.546875 -4.4375 L 12.546875 -3.8125 C 12.546875 -3.414062 12.507812 -3.03125 12.4375 -2.65625 C 12.375 -2.28125 12.238281 -1.929688 12.03125 -1.609375 C 11.820312 -1.285156 11.503906 -1 11.078125 -0.75 C 10.660156 -0.507812 10.097656 -0.320312 9.390625 -0.1875 C 8.691406 -0.0625 7.816406 0 6.765625 0 L 1.765625 0 L 1.765625 -8.53125 Z M 11.0625 -3.8125 L 11.0625 -4.4375 C 11.0625 -4.8125 11.019531 -5.160156 10.9375 -5.484375 C 10.851562 -5.816406 10.671875 -6.101562 10.390625 -6.34375 C 10.109375 -6.59375 9.679688 -6.78125 9.109375 -6.90625 C 8.535156 -7.039062 7.753906 -7.109375 6.765625 -7.109375 L 3.21875 -7.109375 L 3.21875 -1.421875 L 6.765625 -1.421875 C 7.785156 -1.421875 8.585938 -1.476562 9.171875 -1.59375 C 9.753906 -1.707031 10.179688 -1.867188 10.453125 -2.078125 C 10.722656 -2.296875 10.890625 -2.550781 10.953125 -2.84375 C 11.023438 -3.132812 11.0625 -3.457031 11.0625 -3.8125 Z M 11.0625 -3.8125 "/></g></g></g><g fill="#ffffff" fill-opacity="1"><g transform="translate(286.600497, 273.616681)"><g><path d="M 6.421875 0.140625 C 5.328125 0.140625 4.429688 0.0234375 3.734375 -0.203125 C 3.046875 -0.429688 2.515625 -0.738281 2.140625 -1.125 C 1.765625 -1.519531 1.503906 -1.960938 1.359375 -2.453125 C 1.222656 -2.941406 1.15625 -3.441406 1.15625 -3.953125 L 1.21875 -8.5 L 2.796875 -8.5 L 2.796875 -3.953125 C 2.796875 -3.453125 2.921875 -3.003906 3.171875 -2.609375 C 3.421875 -2.222656 3.8125 -1.921875 4.34375 -1.703125 C 4.875 -1.484375 5.566406 -1.375 6.421875 -1.375 C 7.316406 -1.375 8.03125 -1.476562 8.5625 -1.6875 C 9.09375 -1.894531 9.472656 -2.191406 9.703125 -2.578125 C 9.929688 -2.972656 10.046875 -3.429688 10.046875 -3.953125 L 10.125 -8.5 L 11.703125 -8.5 L 11.703125 -4.15625 C 11.703125 -3.613281 11.632812 -3.085938 11.5 -2.578125 C 11.363281 -2.066406 11.109375 -1.601562 10.734375 -1.1875 C 10.367188 -0.78125 9.835938 -0.457031 9.140625 -0.21875 C 8.453125 0.0195312 7.546875 0.140625 6.421875 0.140625 Z M 6.421875 0.140625 "/></g></g></g><g fill="#ffffff" fill-opacity="1"><g transform="translate(300.776224, 273.616681)"><g><path d="M 1.765625 0 L 1.765625 -8.53125 L 3.21875 -8.53125 L 3.21875 0 Z M 1.765625 0 "/></g></g></g><g fill="#ffffff" fill-opacity="1"><g transform="translate(306.99817, 273.616681)"><g><path d="M 9.71875 -8.53125 L 9.71875 -7.140625 L 5.5625 -7.140625 L 5.5625 0 L 4.109375 0 L 4.109375 -7.140625 L -0.046875 -7.140625 L -0.046875 -8.53125 Z M 9.71875 -8.53125 "/></g></g></g><g fill="#ffffff" fill-opacity="1"><g transform="translate(317.892968, 273.616681)"><g><path d="M 10.75 -7.234375 L 3.21875 -7.234375 L 3.21875 -4.8125 L 9.875 -4.8125 L 9.875 -3.515625 L 3.21875 -3.515625 L 3.21875 -1.296875 L 10.75 -1.296875 L 10.75 0 L 1.765625 0 L 1.765625 -8.53125 L 10.75 -8.53125 Z M 10.75 -7.234375 "/></g></g></g><g fill="#ffffff" fill-opacity="1"><g transform="translate(127.385837, 287.86668)"><g><path d="M 9.921875 -8.53125 L 11.375 -8.53125 L 11.375 0 L 9.421875 0 L 3.21875 -6.90625 L 3.21875 0 L 1.765625 0 L 1.765625 -8.53125 L 3.6875 -8.53125 L 9.921875 -1.609375 Z M 9.921875 -8.53125 "/></g></g></g><g fill="#ffffff" fill-opacity="1"><g transform="translate(141.760408, 287.86668)"><g><path d="M 6.421875 0.140625 C 5.328125 0.140625 4.429688 0.0234375 3.734375 -0.203125 C 3.046875 -0.429688 2.515625 -0.738281 2.140625 -1.125 C 1.765625 -1.519531 1.503906 -1.960938 1.359375 -2.453125 C 1.222656 -2.941406 1.15625 -3.441406 1.15625 -3.953125 L 1.21875 -8.5 L 2.796875 -8.5 L 2.796875 -3.953125 C 2.796875 -3.453125 2.921875 -3.003906 3.171875 -2.609375 C 3.421875 -2.222656 3.8125 -1.921875 4.34375 -1.703125 C 4.875 -1.484375 5.566406 -1.375 6.421875 -1.375 C 7.316406 -1.375 8.03125 -1.476562 8.5625 -1.6875 C 9.09375 -1.894531 9.472656 -2.191406 9.703125 -2.578125 C 9.929688 -2.972656 10.046875 -3.429688 10.046875 -3.953125 L 10.125 -8.5 L 11.703125 -8.5 L 11.703125 -4.15625 C 11.703125 -3.613281 11.632812 -3.085938 11.5 -2.578125 C 11.363281 -2.066406 11.109375 -1.601562 10.734375 -1.1875 C 10.367188 -0.78125 9.835938 -0.457031 9.140625 -0.21875 C 8.453125 0.0195312 7.546875 0.140625 6.421875 0.140625 Z M 6.421875 0.140625 "/></g></g></g><g fill="#ffffff" fill-opacity="1"><g transform="translate(155.936127, 287.86668)"><g><path d="M 14.59375 -8.53125 L 14.59375 0 L 13.140625 0 L 13.140625 -6.75 L 9 -0.03125 L 9.015625 0 L 7.265625 0 L 7.296875 -0.03125 L 3.21875 -6.71875 L 3.21875 0 L 1.765625 0 L 1.765625 -8.53125 L 3.828125 -8.53125 L 8.140625 -1.421875 L 12.53125 -8.53125 Z M 14.59375 -8.53125 "/></g></g></g><g fill="#ffffff" fill-opacity="1"><g transform="translate(173.520617, 287.86668)"><g><path d="M 6.203125 -9.328125 L 7.390625 -10.78125 L 9.09375 -10.78125 L 7.6875 -9.328125 Z M 10.75 -7.234375 L 3.21875 -7.234375 L 3.21875 -4.8125 L 9.875 -4.8125 L 9.875 -3.515625 L 3.21875 -3.515625 L 3.21875 -1.296875 L 10.75 -1.296875 L 10.75 0 L 1.765625 0 L 1.765625 -8.53125 L 10.75 -8.53125 Z M 10.75 -7.234375 "/></g></g></g><g fill="#ffffff" fill-opacity="1"><g transform="translate(186.375446, 287.86668)"><g><path d="M 11.859375 -6.046875 C 11.859375 -5.429688 11.734375 -4.960938 11.484375 -4.640625 C 11.242188 -4.328125 10.914062 -4.101562 10.5 -3.96875 C 10.925781 -3.738281 11.226562 -3.441406 11.40625 -3.078125 C 11.59375 -2.710938 11.6875 -2.304688 11.6875 -1.859375 L 11.6875 -0.859375 C 11.6875 -0.703125 11.691406 -0.550781 11.703125 -0.40625 C 11.722656 -0.269531 11.742188 -0.132812 11.765625 0 L 10.09375 0 C 10.070312 -0.132812 10.054688 -0.269531 10.046875 -0.40625 C 10.035156 -0.539062 10.03125 -0.671875 10.03125 -0.796875 L 10.03125 -1.75 C 10.03125 -1.976562 10.007812 -2.207031 9.96875 -2.4375 C 9.9375 -2.675781 9.820312 -2.878906 9.625 -3.046875 C 9.425781 -3.210938 9.085938 -3.296875 8.609375 -3.296875 L 3.3125 -3.296875 L 3.3125 0 L 1.765625 0 L 1.765625 -8.53125 L 9.203125 -8.53125 C 10.035156 -8.53125 10.6875 -8.332031 11.15625 -7.9375 C 11.625 -7.539062 11.859375 -6.960938 11.859375 -6.203125 Z M 3.3125 -4.8125 L 9.203125 -4.8125 C 9.609375 -4.8125 9.90625 -4.929688 10.09375 -5.171875 C 10.28125 -5.421875 10.375 -5.710938 10.375 -6.046875 L 10.375 -6.203125 C 10.375 -6.335938 10.34375 -6.472656 10.28125 -6.609375 C 10.21875 -6.753906 10.101562 -6.875 9.9375 -6.96875 C 9.769531 -7.0625 9.523438 -7.109375 9.203125 -7.109375 L 3.3125 -7.109375 Z M 3.3125 -4.8125 "/></g></g></g><g fill="#ffffff" fill-opacity="1"><g transform="translate(200.536959, 287.86668)"><g><path d="M 1.765625 0 L 1.765625 -8.53125 L 3.21875 -8.53125 L 3.21875 0 Z M 1.765625 0 "/></g></g></g><g fill="#ffffff" fill-opacity="1"><g transform="translate(206.758894, 287.86668)"><g><path d="M 12.6875 -4.015625 C 12.6875 -3.421875 12.554688 -2.835938 12.296875 -2.265625 C 12.046875 -1.691406 11.601562 -1.203125 10.96875 -0.796875 L 11.625 0.09375 L 10.265625 1.171875 L 9.3125 -0.109375 C 8.96875 -0.0351562 8.597656 0.0195312 8.203125 0.0625 C 7.816406 0.113281 7.382812 0.140625 6.90625 0.140625 C 5.8125 0.140625 4.894531 0.0234375 4.15625 -0.203125 C 3.414062 -0.429688 2.820312 -0.738281 2.375 -1.125 C 1.9375 -1.519531 1.617188 -1.960938 1.421875 -2.453125 C 1.234375 -2.941406 1.140625 -3.441406 1.140625 -3.953125 L 1.140625 -4.578125 C 1.140625 -5.109375 1.234375 -5.617188 1.421875 -6.109375 C 1.617188 -6.609375 1.9375 -7.050781 2.375 -7.4375 C 2.820312 -7.820312 3.414062 -8.128906 4.15625 -8.359375 C 4.894531 -8.597656 5.8125 -8.71875 6.90625 -8.71875 C 7.988281 -8.71875 8.898438 -8.601562 9.640625 -8.375 C 10.378906 -8.15625 10.972656 -7.851562 11.421875 -7.46875 C 11.867188 -7.082031 12.191406 -6.644531 12.390625 -6.15625 C 12.585938 -5.675781 12.6875 -5.171875 12.6875 -4.640625 Z M 11.203125 -3.8125 L 11.203125 -4.4375 C 11.203125 -4.96875 11.050781 -5.445312 10.75 -5.875 C 10.457031 -6.3125 9.992188 -6.65625 9.359375 -6.90625 C 8.722656 -7.164062 7.90625 -7.296875 6.90625 -7.296875 C 5.882812 -7.296875 5.054688 -7.175781 4.421875 -6.9375 C 3.796875 -6.695312 3.335938 -6.375 3.046875 -5.96875 C 2.753906 -5.5625 2.609375 -5.097656 2.609375 -4.578125 L 2.609375 -3.953125 C 2.609375 -3.453125 2.753906 -3 3.046875 -2.59375 C 3.335938 -2.1875 3.796875 -1.863281 4.421875 -1.625 C 5.054688 -1.394531 5.882812 -1.28125 6.90625 -1.28125 C 7.1875 -1.28125 7.445312 -1.285156 7.6875 -1.296875 C 7.9375 -1.316406 8.164062 -1.34375 8.375 -1.375 L 7.84375 -2.078125 L 9.203125 -3.140625 L 10.109375 -1.921875 C 10.492188 -2.148438 10.769531 -2.425781 10.9375 -2.75 C 11.113281 -3.070312 11.203125 -3.425781 11.203125 -3.8125 Z M 11.203125 -3.8125 "/></g></g></g><g fill="#ffffff" fill-opacity="1"><g transform="translate(221.81521, 287.86668)"><g><path d="M 6.421875 0.140625 C 5.328125 0.140625 4.429688 0.0234375 3.734375 -0.203125 C 3.046875 -0.429688 2.515625 -0.738281 2.140625 -1.125 C 1.765625 -1.519531 1.503906 -1.960938 1.359375 -2.453125 C 1.222656 -2.941406 1.15625 -3.441406 1.15625 -3.953125 L 1.21875 -8.5 L 2.796875 -8.5 L 2.796875 -3.953125 C 2.796875 -3.453125 2.921875 -3.003906 3.171875 -2.609375 C 3.421875 -2.222656 3.8125 -1.921875 4.34375 -1.703125 C 4.875 -1.484375 5.566406 -1.375 6.421875 -1.375 C 7.316406 -1.375 8.03125 -1.476562 8.5625 -1.6875 C 9.09375 -1.894531 9.472656 -2.191406 9.703125 -2.578125 C 9.929688 -2.972656 10.046875 -3.429688 10.046875 -3.953125 L 10.125 -8.5 L 11.703125 -8.5 L 11.703125 -4.15625 C 11.703125 -3.613281 11.632812 -3.085938 11.5 -2.578125 C 11.363281 -2.066406 11.109375 -1.601562 10.734375 -1.1875 C 10.367188 -0.78125 9.835938 -0.457031 9.140625 -0.21875 C 8.453125 0.0195312 7.546875 0.140625 6.421875 0.140625 Z M 6.421875 0.140625 "/></g></g></g><g fill="#ffffff" fill-opacity="1"><g transform="translate(235.990925, 287.86668)"><g><path d="M 10.75 -7.234375 L 3.21875 -7.234375 L 3.21875 -4.8125 L 9.875 -4.8125 L 9.875 -3.515625 L 3.21875 -3.515625 L 3.21875 -1.296875 L 10.75 -1.296875 L 10.75 0 L 1.765625 0 L 1.765625 -8.53125 L 10.75 -8.53125 Z M 10.75 -7.234375 "/></g></g></g><g clip-path="url(#4a66c074d6)"><path fill="#f46914" d="M 211.050781 130.191406 C 211.050781 130.191406 224.171875 128.953125 247.175781 126.484375 C 270.179688 124.015625 270.796875 128.957031 270.796875 128.957031 C 264.390625 128.570312 211.050781 130.191406 211.050781 130.191406 Z M 104.757812 121.75 C 104.757812 121.75 120.273438 121.925781 138.15625 122.523438 C 138.15625 122.523438 150.300781 122.511719 152.769531 126.0625 L 169.867188 125.40625 C 169.867188 125.40625 164.734375 119.304688 133.703125 118.457031 L 129.960938 120.347656 C 129.960938 120.347656 123.207031 119.960938 113.015625 119.847656 L 110.6875 117.652344 C 110.453125 117.429688 110.125 117.335938 109.808594 117.402344 L 106.261719 118.136719 C 106 118.191406 105.789062 118.382812 105.710938 118.640625 Z M 166.277344 94.605469 C 166.277344 94.605469 226.953125 49.910156 273.960938 75.617188 C 273.960938 75.617188 304.066406 90 290.636719 136.367188 L 305.199219 136.367188 C 305.199219 136.367188 323.980469 83.722656 281.140625 66.351562 C 238.300781 48.984375 179.015625 81.40625 166.277344 94.605469 Z M 244.785156 199.511719 C 244.785156 199.511719 207.960938 233.089844 168.828125 238.183594 C 129.691406 243.277344 112.320312 233.550781 101.667969 211.785156 C 101.667969 211.785156 111.628906 259.949219 183.417969 242.8125 C 183.417969 242.8125 221.394531 234.015625 261.226562 199.511719 Z M 244.785156 199.511719 " fill-opacity="1" fill-rule="nonzero"/></g><g clip-path="url(#38468eca81)"><path fill="#ffffff" d="M 279.363281 120.054688 C 279.363281 120.054688 274.21875 117.789062 261.972656 116.039062 C 261.972656 116.039062 259.527344 115.679688 253.582031 112.4375 C 247.640625 109.195312 233.769531 100.394531 220.800781 99.46875 C 220.800781 99.46875 207.886719 98.347656 186.8125 103.90625 C 186.8125 103.90625 197 98.859375 217.996094 98.390625 C 217.996094 98.390625 192.394531 96.691406 176.855469 97 C 176.855469 97 163.0625 97.820312 153.390625 101.117188 C 143.714844 104.410156 117.574219 113.261719 108.101562 115.214844 C 108.101562 115.214844 122.203125 116.347656 137.125 115.214844 C 137.125 115.214844 129.921875 114.597656 127.65625 111.511719 L 154.933594 102.25 C 154.933594 102.25 157.789062 101.191406 161.109375 101.425781 C 161.109375 101.425781 176.855469 100.9375 185.34375 103.714844 C 185.34375 103.714844 169.984375 111.585938 141.5 116.296875 C 141.5 116.296875 147.210938 118.40625 175.207031 117.8125 C 200.726562 117.277344 252.398438 118.714844 261.867188 119.539062 C 261.867188 119.539062 273.191406 120.570312 277.617188 123.554688 C 277.617188 123.554688 270.515625 127.667969 270.824219 136.625 C 270.824219 136.625 275.351562 126.230469 281.113281 126.433594 C 286.878906 126.640625 289.246094 136.625 289.246094 136.625 C 289.246094 136.625 292.332031 125.300781 279.363281 120.054688 Z M 202.996094 114.441406 C 199.1875 114.441406 196.613281 113.671875 195.636719 113.15625 C 194.660156 112.640625 193.320312 111.40625 192.136719 110.015625 C 190.953125 108.628906 191.878906 108.007812 191.878906 108.007812 C 203.253906 101.472656 215.292969 101.371094 215.292969 101.371094 C 220.699219 107.339844 223.609375 115.316406 223.609375 115.316406 C 223.609375 115.316406 206.804688 114.441406 202.996094 114.441406 Z M 228.46875 115.320312 C 225.175781 107.1875 218.589844 101.375 218.589844 101.375 C 236.554688 101.8125 255.847656 116.453125 255.847656 116.453125 Z M 103.933594 123.089844 C 103.933594 123.089844 102.953125 125.351562 100.636719 127.925781 C 100.636719 127.925781 100.636719 133.792969 102.285156 136.367188 C 102.285156 136.367188 103.816406 133.5 103.867188 130.203125 L 113.324219 130.652344 C 113.324219 130.652344 108.460938 131.117188 109.230469 135.902344 C 109.230469 135.902344 109 132.042969 114.558594 132.351562 C 120.117188 132.664062 127.449219 131.8125 129.839844 136.058594 C 129.839844 136.058594 130.394531 131.921875 119.882812 131.195312 C 119.882812 131.195312 150.453125 131.503906 157.320312 130.730469 C 157.320312 130.730469 118.417969 129.726562 104.289062 127.335938 C 104.292969 127.335938 104.472656 125.792969 103.933594 123.089844 Z M 187.042969 136.367188 C 187.042969 136.367188 189.976562 132.429688 195.6875 132.738281 C 201.402344 133.046875 202.558594 135.285156 203.640625 136.367188 L 207.113281 136.367188 C 207.113281 136.367188 203.949219 129.417969 195.765625 129.339844 C 187.582031 129.265625 184.496094 134.4375 183.722656 136.367188 Z M 282.066406 95.300781 C 282.066406 95.300781 272.679688 70.023438 231.503906 74.148438 C 231.503906 74.148438 202.171875 76.773438 177.160156 92.828125 L 190.976562 92.828125 C 190.980469 92.832031 252.191406 57.785156 282.066406 95.300781 Z M 106.300781 199.511719 C 106.300781 199.511719 109.542969 227.917969 142.582031 233.011719 C 175.617188 238.105469 207.574219 220.042969 219.617188 212.476562 C 219.617188 212.476562 178.398438 237.179688 143.351562 226.527344 C 143.351562 226.527344 120.964844 219.425781 118.339844 199.511719 Z M 106.300781 199.511719 " fill-opacity="1" fill-rule="nonzero"/></g></svg>